# xmcd
#
# Track frame offsets:
#	150
#	12962
#	29660
#	40215
#	52059
#	66246
#	77782
#	95751
#	114700
#	130218
#	147906
#	159407
#	175864
#	187366
#	204261
#	217107
#	232818
#	245458
#	264060
#	279782
#	293822
#	308665
#	325747
#
# Disc length: 4534 seconds
#
# Revision: 1
# Processed by: cddbd v1.5.2PL0 Copyright (c) Steve Scherf et al.
# Submitted via: audiograbber 1.83.01
#
DISCID=4f11b417
DTITLE=Country Discovery - Compil Disc Winter 2007
DYEAR=2007
DGENRE=Country
TTITLE0=This One Is Mine - Gary Shavers
TTITLE1=Redneck Love  - Cidy Carver
TTITLE2=Hello Mary Lou  - Derrick Mehaffey
TTITLE3=Definite Maybe  - Karl Hobbs
TTITLE4=Country Livin With Rock and Roll Woman  - Paul Stout
TTITLE5=You Don´t Have To Tell Me To  - Matt Bowlin
TTITLE6=Storms  - Paul Stout
TTITLE7=A Man I Don´t Recall - Shirley Raye
TTITLE8=Cajun Baby  - Dusty Owens
TTITLE9=White Squares On Yellow Walls  - Matt Bowlin
TTITLE10=She´s A Country Girl  - Chase Rogers
TTITLE11=A Leavin Comin On  - Glen Whitaker
TTITLE12=Country Music Gone To Hell  - Michael Martin, Danny Shirley and Roger Al
TTITLE12=len Wade
TTITLE13=Love Is Always A Rose  - Ruthie Steele
TTITLE14=In The Getto  - Karsten Holme
TTITLE15=One By One  - Bill Murphree and Shirley Raye
TTITLE16=Somwhere Out In Texas  - Ray Harrrison
TTITLE17=You Gotta Be Positive  - Ulla Lindstroem
TTITLE18=Rhinestone Cowboy  - Melvin Morrison
TTITLE19=Feeling Is Beliving  - Bill Murphree
TTITLE20=The Last Thing On My Mind  - Anni Filt
TTITLE21=Long Black Train  - Mike Headrick
TTITLE22=Rainiday Woman  - Mike Headrick and Ralph Mooney
EXTD=
EXTT0=
EXTT1=
EXTT2=
EXTT3=
EXTT4=
EXTT5=
EXTT6=
EXTT7=
EXTT8=
EXTT9=
EXTT10=
EXTT11=
EXTT12=
EXTT13=
EXTT14=
EXTT15=
EXTT16=
EXTT17=
EXTT18=
EXTT19=
EXTT20=
EXTT21=
EXTT22=
PLAYORDER=
